HIERARCHY
ROOT ui
{
	 OFFSET 0 0 0
	 CHANNELS 3 XPosition YPosition Z Position
	 EndSite
	 {
	 OFFSET 0 -1 0
	 }
}
ROOT li
{
	 OFFSET 0 0 0
	 CHANNELS 3 XPosition YPosition Z Position
	 EndSite
	 {
	 OFFSET 0 -1 0
	 }
}
ROOT ul
{
	 OFFSET 0 0 0
	 CHANNELS 3 XPosition YPosition Z Position
	 EndSite
	 {
	 OFFSET 0 -1 0
	 }
}
ROOT ll
{
	 OFFSET 0 0 0
	 CHANNELS 3 XPosition YPosition Z Position
	 EndSite
	 {
	 OFFSET 0 -1 0
	 }
}
ROOT tt
{
	 OFFSET 0 0 0
	 CHANNELS 3 XPosition YPosition Z Position
	 EndSite
	 {
	 OFFSET 0 -1 0
	 }
}
ROOT tb
{
	 OFFSET 0 0 0
	 CHANNELS 3 XPosition YPosition Z Position
	 EndSite
	 {
	 OFFSET 0 -1 0
	 }
}
ROOT td
{
	 OFFSET 0 0 0
	 CHANNELS 3 XPosition YPosition Z Position
	 EndSite
	 {
	 OFFSET 0 -1 0
	 }
}
ROOT v
{
	 OFFSET 0 0 0
	 CHANNELS 3 XPosition YPosition Z Position
	 EndSite
	 {
	 OFFSET 0 -1 0
	 }
}
ROOT bn
{
	 OFFSET 0 0 0
	 CHANNELS 3 XPosition YPosition Z Position
	 EndSite
	 {
	 OFFSET 0 -1 0
	 }
}
MOTION
Frames: 19
Frame Time: 0.002
0.0011329489946365356	0.0010598809719085693	0		0.5004049072265625	-2.409236572265625	0		-0.9800694580078125	0.09518653869628907	0		-0.7477811889648438	-2.59043115234375	0		1.365476806640625	-0.8344793701171875	0		3.04225634765625	-0.16539076232910158	0		4.68629638671875	-0.04172414016723633	0		5.72399365234375	0.11899301147460938	0		0.021395788192749024	5.96400341796875	0		
0.007573591232299805	0.006324038982391357	0		0.4594042663574219	-2.406820556640625	0		-0.9766953125	0.09825724029541015	0		-0.7416598510742187	-2.58534228515625	0		1.3711583251953126	-0.8278359375	0		3.047931884765625	-0.15030885314941406	0		4.690451171875	-0.04918410873413086	0		5.72327734375	0.11990994262695312	0		0.0343751220703125	5.9741015625	0		
0.009988554954528809	0.009704959869384766	0		0.5043995666503907	-2.405206787109375	0		-0.98917431640625	0.10770269012451172	0		-0.7416724243164062	-2.5860869140625	0		1.3765526123046874	-0.8351704711914063	0		3.021077880859375	-0.16054649353027345	0		4.693921875	-0.04263970947265625	0		5.73191357421875	0.13660848999023437	0		0.032196739196777346	5.97355322265625	0		
0.009345003128051758	0.009187005043029784	0		0.4753465576171875	-2.405003173828125	0		-0.9821337890625	0.09277998352050781	0		-0.7437289428710937	-2.588744873046875	0		1.3641160888671875	-0.8351087646484375	0		3.04861474609375	-0.15391845703125	0		4.6904990234375	-0.03196425628662109	0		5.72607421875	0.12958047485351562	0		0.0310892333984375	5.97202001953125	0		
0.005650987148284912	0.004773816108703613	0		0.5001796569824218	-2.410884033203125	0		-0.9945577392578125	0.10232119750976562	0		-0.7478270263671875	-2.59331005859375	0		1.33533935546875	-0.80368505859375	0		3.032981201171875	-0.156388671875	0		4.69473046875	-0.0394673957824707	0		5.72127099609375	0.12249948883056641	0		0.028130132675170897	5.9725693359375	0		
-0.002046880006790161	-0.0015126700401306152	0		0.44623431396484375	-2.40511181640625	0		-0.9833616943359375	0.09143461608886719	0		-0.7478458251953125	-2.59390185546875	0		1.3691771240234376	-0.8415321044921875	0		3.05645361328125	-0.15565516662597656	0		4.69416259765625	-0.03888898468017578	0		5.72066796875	0.12329862976074218	0		-0.10617043304443359	5.95182958984375	0		
0.007612047195434571	0.007902194023132324	0		0.48604473876953125	-2.41220751953125	0		-0.9798407592773437	0.09477565765380859	0		-0.7776819458007812	-2.584831298828125	0		1.33297265625	-0.83291845703125	0		3.030748046875	-0.16492257690429687	0		4.68677197265625	-0.03119520378112793	0		5.7152646484375	0.13215669250488282	0		-0.10593833923339843	5.94938671875	0		
0.007107268810272216	0.007573335170745849	0		0.48802249145507814	-2.410489013671875	0		-0.9803613891601562	0.09426599884033203	0		-0.705825927734375	-2.5917373046875	0		1.3745736083984375	-0.835841064453125	0		3.08086279296875	-0.13570013427734376	0		4.70623046875	-0.033065437316894535	0		5.7188955078125	0.1407915802001953	0		0.040097373962402344	5.9791015625	0		
0.0035612540245056152	0.0033563430309295652	0		0.5019946899414063	-2.408962890625	0		-0.984921630859375	0.08990420532226563	0		-0.754692626953125	-2.58316650390625	0		1.368129150390625	-0.8417705078125	0		3.016937255859375	-0.1592152557373047	0		4.696791015625	-0.03138174057006836	0		5.71908935546875	0.12544976806640626	0		0.022459945678710937	5.97014794921875	0		
7.18109980225563E-5	1.8931899964809418E-4	0		0.4998674011230469	-2.41207470703125	0		-0.9853658447265625	0.089529296875	0		-0.722859130859375	-2.59013330078125	0		1.3619437255859375	-0.8356754150390625	0		3.0358798828125	-0.14136505126953125	0		4.69154248046875	-0.021806867599487304	0		5.7137978515625	0.13417839050292968	0		-0.11129315948486328	5.9495166015625	0		
-0.004383200168609619	-0.0029095249176025392	0		0.5065969848632812	-2.4223193359375	0		-0.985775146484375	0.08922003173828125	0		-0.7839564819335938	-2.59221875	0		1.367540283203125	-0.8417860717773438	0		3.02922998046875	-0.155016357421875	0		4.69185595703125	-0.036372608184814456	0		5.7182255859375	0.1266703109741211	0		-0.11248712921142578	5.94932470703125	0		
0.002365675926208496	0.0028238160610198973	0		0.48569512939453124	-2.412984375	0		-0.9861519775390625	0.0889739990234375	0		-0.7419661865234375	-2.59025439453125	0		1.3703310546875	-0.8388126220703125	0		3.044111328125	-0.14308045959472657	0		4.69974365234375	-0.02310489273071289	0		5.717154296875	0.14323297119140624	0		0.01984435272216797	5.96860302734375	0		
0.005104351997375489	0.006681916236877442	0		0.5037196044921874	-2.407365234375	0		-0.9824224243164063	0.09271051788330079	0		-0.7420355224609375	-2.5904150390625	0		1.3731375732421875	-0.8358126831054687	0		3.025637939453125	-0.15050094604492187	0		4.7055615234375	-0.014819038391113282	0		5.72164697265625	0.1356463623046875	0		0.018889019012451172	5.968521484375	0		
0.001716462016105652	0.0027003641128540037	0		0.5015867309570312	-2.409321533203125	0		-0.9868178100585937	0.0886594009399414	0		-0.677336669921875	-2.602765380859375	0		1.36678759765625	-0.841613525390625	0		3.05052734375	-0.14075025939941407	0		4.699099609375	-0.022320056915283205	0		5.7213232421875	0.1361201934814453	0		0.01804159164428711	5.96848291015625	0		
-0.005684964179992676	-0.003164979934692383	0		0.49738894653320315	-2.4142060546875	0		-0.9871126098632812	0.08858349609375	0		-0.7483165893554687	-2.59646337890625	0		1.366564208984375	-0.8415087890625	0		3.03811865234375	-0.1472860107421875	0		4.70083203125	-0.020997955322265626	0		5.716873046875	0.12863690185546875	0		0.01631483840942383	5.9695029296875	0		
-0.0018963999748229981	-2.059530019760132E-4	0		0.5081587829589844	-2.420346435546875	0		-0.98738623046875	0.08855657958984375	0		-0.7484190063476562	-2.59647509765625	0		1.366349853515625	-0.8413856201171875	0		3.0249765625	-0.14081005859375	0		4.69369970703125	-0.013530299186706543	0		5.71175	0.13713111877441406	0		-0.11576661682128907	5.94803662109375	0		
0.010736538887023925	-0.006383112907409668	0		0.4680570068359375	-2.418493408203125	0		-0.9776624145507813	0.0873853759765625	0		-0.767515625	-2.595084228515625	0		1.37225439453125	-0.8353626098632813	0		3.045406494140625	-0.15798326110839844	0		4.70314404296875	-0.029410228729248047	0		5.7114921875	0.13748973083496094	0		-0.116338623046875	5.94709912109375	0		
0.0037472140789031982	0.006845189094543457	0		0.5140177001953125	-2.413249755859375	0		-0.9838069458007812	0.09255845642089844	0		-0.7425633544921875	-2.590489990234375	0		1.37204931640625	-0.8352125854492187	0		3.055722900390625	-0.12896388244628906	0		4.7063056640625	-0.008193619728088379	0		5.72539892578125	0.14553887939453125	0		0.016571218490600587	5.96567041015625	0		
-0.006667338848114014	-0.002839950084686279	0		0.4739745788574219	-2.406357177734375	0		-0.9881113891601563	0.08873287200927735	0		-0.7488347778320312	-2.596271240234375	0		1.3657318115234376	-0.8409381103515625	0		3.019184326171875	-0.14507603454589843	0		4.703984375	-0.01290742015838623	0		5.720017578125	0.1379091033935547	0		-0.11716690063476562	5.94831298828125	0		
